<?xml version="1.0" encoding="UTF-8"?>
<svg id="Warstwa_2" data-name="Warstwa 2" xmlns="http://www.w3.org/2000/svg" viewBox="0 0 539.75 293.87">
  <defs>
    <style>
      .cls-1 {
        fill: none;
        stroke: #1d1d1b;
        stroke-miterlimit: 10;
        stroke-width: 10px;
      }
    </style>
  </defs>
  <g id="Warstwa_1-2">
    <path class="cls-1" d="M334.67,288.29c-81.05.75-238.9.12-312.03.31-3.41-.41-8.9-2.08-11.76-4.74-10.94-15.64-2.88-44.63-4.85-86.43.02-20.31.36-39.21.39-55.48-.24-10.91,10.01-22.8,21.38-23.7,11.55,0,66.4,0,90.36-.02,15.05-2.6,26.82-15.75,43.94-8.45,8.53,4.36,16.38,9.45,26.26,7.94,24.42-2.2,61.68,6.32,74.1-7.77,6.58-7.27,4.49-18.64,10.27-26.22,6.91-8.76,19.82-12.47,29.32-5.73,12.29,7.18,6.79,24.52,17.19,33.09,4.21,3.63,8.58,6.18,13.99,5.58,18.96,0,58.1,0,68.1,0,13.38.47,25.16-10.43,23.39-24.25-.68-10.27,1.84-22.77-2.2-32.14-5.16-11.79-16.68-12.77-28.79-12.35-13.85,0-38.25,0-51.3,0-14.72,1.99-31.2-6.38-30.4-23,.25-9.27,8.38-17.64,17-19.72,10.63-.26,95.92.05,128.84-.07,13.94-.9,28.63,1.25,29.85,16.6,1.31,33.58,1.92,81.79,2.96,118.71.08,15.58,12.88,23.08,26.85,25.12,13.84,3.04,21.8,19.81,14.36,32.15-15.01,24.13-68.06-1.22-86.17,18.47-15.66,18.93,4.81,50.85-14.57,67.05-10.75,7.32-24.92,5.75-37.16,4.6-7.2-1.22-12.86-7.09-19.88-9.14-14.29-5.83-26.39,6.83-39.34,9.52l-.1.02Z"/>
  </g>
</svg>