<?xml version="1.0" encoding="UTF-8"?>
<svg id="Warstwa_2" data-name="Warstwa 2" xmlns="http://www.w3.org/2000/svg" viewBox="0 0 551.92 273.3">
  <defs>
    <style>
      .cls-1 {
        fill: none;
        stroke: #6c6c6c;
        stroke-miterlimit: 10;
        stroke-width: 15px;
      }
    </style>
  </defs>
  <g id="Warstwa_1-2" data-name="Warstwa 1">
    <path class="cls-1" d="M218.88,265.12c8.04,1.46,201.86.04,211.37.5.21-.02.58-.13,1.72-.48,1.57-.57,4.03-1.2,5.75-1.8,2.1-.73,4.45-1.24,5.5-2.73,1.18-1.4,2.53-3.55,3.15-4.76.84-2.02.31-3.77.38-6.07-.14-7.32-.45-20.4-.49-24.19-.05-3.14,3.6-4.78,6.42-4.84,1.42-.06,1.86.12,3.26.47.41.11.84.22,1.28.33,11.6,2.98,29.42,7.56,40.87,10.5,2.95.81,4.89.89,8.43,1.04,2.71.07,6.08-1.51,8.94-2.44,3.15-.86,4.71-3.67,6.8-6.05.86-1.2,1.99-2.24,2.47-3.39,1.84-4.79,13.58-30.62,18.6-42.53,1.5-2.53,1.24-5.5.44-8.25-.97-2.46-1.59-3.61-2.98-4.81-1.26-.72-5.3-2.93-10.9-6.04-4.15-2.29-9.14-5.05-14.44-7.99-19.51-10.71-41.42-23.01-45.31-25-5.34-1.5-11.24-3.54-16.64-4.41-3.22-.44-7.12-1.37-10.22-1.49-5.17.54-47.74,5.06-63.66,6.74-1.89.25-2.24.03-4.44.88-4.58,1.19-7.31,4.96-9.32,8.75-2.37,4.03-5.72,10.57-8.2,13.86-2.93,2.83-7.19,2.85-10.63,3.55-3.7.6-10.69,1.75-14.81,2.42-7.91,1.3-16.71,2.03-24.78,2.93-3.41.29-6.93.05-10.41.06-3.23-.04-5.28.04-8.26-.65-6.78-1.47-13.64-2.33-20.12-4.44-3.95-1.36-8.6-3.61-12.42-5.24-4.16-1.74-8-4.5-11.96-6.82-6.69-4.35-13.13-9.96-18.75-15.6-4.31-4.76-8-9.78-11.8-15.01-5.2-7.28-9.74-13.87-14.08-21.37-1.91-3.12-3.15-5.18-4.67-8.08-1.46-2.48-2.67-5.58-2.09-8.24.76-5.53,7.03-12.79,4.22-18.84-.83-1.71-2.85-3.13-4.04-3.98-2.45-1.72-3.1-2.05-6.73-4.46-12.13-7.92-34.46-22.63-47.85-31.38-1.64-1.23-3.5-1.9-5.55-2.85-6.4-2.69-14.02-4.06-21.24-5.15-2.69-.6-5.05-.11-7.94.16-4.66.47-9.14,1.23-13.54,3.17-3.65,1.77-6.61,3.68-9.85,6.25-5.01,3.75-13.34,9.99-16.74,12.54-2.43,1.78-6.06,3.4-9.69,4.21-4.99,1.7-12.71-1.11-16.71,3.62-1.72,2.08-2.36,4.01-2.98,6.31-.7,2.75-2.05,8.2-2.84,11.36-1.07,3.83-1.96,7.37-3.24,11.2-3.54,10.5-9.5,20-12.96,30.56-1.18,4.55-2.34,9.71-3.1,14.63-1.15,7.2-2.27,13.86-3.26,21.02-.55,6.24-3.59,13.7,2.07,18.06,5.16,3.71,17.34,13.23,24.21,18.16,2.18,1.55,6.21,4.54,8.91,6.47,3.13,2.38,7.78,6,6.67,10.75-.54,2.53-1.42,3.34-3.12,6.25-2.03,3.29-4.12,6.71-6.15,10.01-2.61,4.65-9.53,12.92-4.49,17.31,1.19,1.01,2.49,1.84,3.79,2.19,4.42,1.05,30.46,7.13,43.45,10.18,9.3,2.3,14.75,3.22,23.92,4.28,7.63,1.19,15.73.74,24.17,1.02,7.23.11,15.62.13,23.4-.03,3.55-.24,7.89-.33,11.55-.73,4.74-.37,9.43-1.27,13.98-.75,3.46.4,8,.59,11.5,1.36,5.13,1.58,10.52,4.96,13.69,9.4,2.32,3.65,5.94,9.32,8.06,12.69,1.13,1.96,2.89,4.36,4.39,5.61l.07.06Z"/>
  </g>
</svg>